<svg xmlns="http://www.w3.org/2000/svg" viewBox="0 0 1024 1024" width="1024" height="1024">
<defs>
<linearGradient id="jetlag-bg" x1="0" y1="0" x2="0.35" y2="1">
<stop offset="0" stop-color="#22224a"/><stop offset="1" stop-color="#0a0a1a"/>
</linearGradient>
<linearGradient id="jetlag-acc" x1="0.1" y1="0" x2="0.9" y2="1">
<stop offset="0" stop-color="#ffc76b"/><stop offset="1" stop-color="#e0603f"/>
</linearGradient>
<radialGradient id="jetlag-sheen" cx="0.28" cy="0.1" r="0.95">
<stop offset="0" stop-color="#ffffff" stop-opacity="0.22"/>
<stop offset="0.62" stop-color="#ffffff" stop-opacity="0"/>
</radialGradient>
</defs>
<rect x="32" y="32" width="960" height="960" rx="216" fill="url(#jetlag-bg)"/>
<rect x="32" y="32" width="960" height="960" rx="216" fill="url(#jetlag-sheen)"/>
<rect x="46" y="46" width="932" height="932" rx="202" fill="none" stroke="#ffffff" stroke-opacity="0.12" stroke-width="4"/>
<circle cx="470" cy="470" r="252" fill="#ffffff" fill-opacity="0.92"/>
<circle cx="470" cy="470" r="252" fill="none" stroke="url(#jetlag-acc)" stroke-width="40"/>
<g stroke="url(#jetlag-acc)" stroke-width="22" stroke-linecap="round" opacity="0.55">
<path d="M470 262v46M470 632v46M262 470h46M632 470h46"/>
</g>
<path d="M470 470V314" stroke="url(#jetlag-acc)" stroke-width="34" stroke-linecap="round"/>
<path d="M470 470l122 78" stroke="url(#jetlag-acc)" stroke-width="34" stroke-linecap="round"/>
<circle cx="470" cy="470" r="30" fill="url(#jetlag-acc)"/>
<path d="M788 636a112 112 0 1 0 112 158 138 138 0 0 1-112-158z" fill="url(#jetlag-acc)"/>
</svg>
